<svg width="25" height="25" viewBox="0 0 25 25" fill="none" xmlns="http://www.w3.org/2000/svg">
<g clip-path="url(#clip0_1164_535)">
<path d="M8.33337 7.96143C7.78109 7.96143 7.33337 8.40914 7.33337 8.96143C7.33337 9.51371 7.78109 9.96143 8.33337 9.96143H16.3334C16.8857 9.96143 17.3334 9.51371 17.3334 8.96143C17.3334 8.40914 16.8857 7.96143 16.3334 7.96143H8.33337Z" fill="#FF5003"/>
<path d="M8.33337 11.9614C7.78109 11.9614 7.33337 12.4091 7.33337 12.9614C7.33337 13.5137 7.78109 13.9614 8.33337 13.9614H16.3334C16.8857 13.9614 17.3334 13.5137 17.3334 12.9614C17.3334 12.4091 16.8857 11.9614 16.3334 11.9614H8.33337Z" fill="#FF5003"/>
<path d="M8.33337 15.9614C7.78109 15.9614 7.33337 16.4091 7.33337 16.9614C7.33337 17.5137 7.78109 17.9614 8.33337 17.9614H12.3334C12.8857 17.9614 13.3334 17.5137 13.3334 16.9614C13.3334 16.4091 12.8857 15.9614 12.3334 15.9614H8.33337Z" fill="#FF5003"/>
<path fill-rule="evenodd" clip-rule="evenodd" d="M6.33337 3.96143H9.33337C9.33337 2.30457 10.6765 0.961426 12.3334 0.961426C13.9902 0.961426 15.3334 2.30457 15.3334 3.96143H18.3334C19.9902 3.96143 21.3334 5.30457 21.3334 6.96143V20.9614C21.3334 22.6183 19.9902 23.9614 18.3334 23.9614H6.33337C4.67652 23.9614 3.33337 22.6183 3.33337 20.9614V6.96143C3.33337 5.30457 4.67652 3.96143 6.33337 3.96143ZM12.3334 2.96143C11.7811 2.96143 11.3334 3.40914 11.3334 3.96143H13.3334C13.3334 3.40914 12.8857 2.96143 12.3334 2.96143ZM6.33337 5.96143C5.78109 5.96143 5.33337 6.40914 5.33337 6.96143V20.9614C5.33337 21.5137 5.78109 21.9614 6.33337 21.9614H18.3334C18.8857 21.9614 19.3334 21.5137 19.3334 20.9614V6.96143C19.3334 6.40914 18.8857 5.96143 18.3334 5.96143H6.33337Z" fill="#FF5003"/>
</g>
<defs>
<clipPath id="clip0_1164_535">
<rect width="24" height="24" fill="white" transform="translate(0.333374 0.961426)"/>
</clipPath>
</defs>
</svg>
