<svg width="23" height="21" viewBox="0 0 23 21" fill="none" xmlns="http://www.w3.org/2000/svg">
<path fill-rule="evenodd" clip-rule="evenodd" d="M20.6667 6.15351C20.6667 9.33977 17.9804 11.9227 14.6667 11.9227C11.353 11.9227 8.66669 9.33977 8.66669 6.15351C8.66669 2.96725 11.353 0.384277 14.6667 0.384277C17.9804 0.384277 20.6667 2.96725 20.6667 6.15351ZM18.6667 6.15351C18.6667 8.27768 16.8758 9.99966 14.6667 9.99966C12.4575 9.99966 10.6667 8.27768 10.6667 6.15351C10.6667 4.02934 12.4575 2.30735 14.6667 2.30735C16.8758 2.30735 18.6667 4.02934 18.6667 6.15351Z" fill="#6C7278"/>
<path d="M7.86562 2.3841C8.40687 2.27846 8.75657 1.77093 8.6467 1.2505C8.53683 0.730072 8.009 0.39382 7.46775 0.499462C4.72865 1.03409 2.66669 3.36108 2.66669 6.1533C2.66669 8.94553 4.72865 11.2725 7.46775 11.8071C8.009 11.9128 8.53683 11.5765 8.6467 11.0561C8.75657 10.5357 8.40687 10.0281 7.86562 9.9225C6.04025 9.56622 4.66669 8.01292 4.66669 6.1533C4.66669 4.29368 6.04025 2.74038 7.86562 2.3841Z" fill="#6C7278"/>
<path fill-rule="evenodd" clip-rule="evenodd" d="M9.3646 14.3973C10.5974 13.4874 12.3157 12.8843 14.6667 12.8843C17.0177 12.8843 18.736 13.4874 19.9689 14.3973C21.1925 15.3005 21.8582 16.4468 22.2192 17.4118C22.5369 18.2612 22.3143 19.0926 21.7815 19.6818C21.2669 20.2509 20.4878 20.5766 19.6667 20.5766H9.66672C8.84558 20.5766 8.06648 20.2509 7.55189 19.6818C7.01905 19.0926 6.79645 18.2612 7.11422 17.4118C7.47525 16.4467 8.14095 15.3004 9.3646 14.3973ZM10.5824 15.9228C9.74025 16.5443 9.26513 17.3437 8.99616 18.0627C8.94003 18.2127 8.97091 18.3202 9.06116 18.42C9.16966 18.54 9.38327 18.6535 9.66672 18.6535H19.6667C19.9501 18.6535 20.1637 18.54 20.2722 18.42C20.3625 18.3202 20.3934 18.2127 20.3372 18.0627C20.0683 17.3438 19.5932 16.5443 18.7511 15.9228C17.9181 15.308 16.6457 14.8074 14.6667 14.8074C12.6878 14.8074 11.4153 15.308 10.5824 15.9228Z" fill="#6C7278"/>
<path d="M2.91761 17.9582C3.12232 17.2003 3.47366 16.4034 4.05349 15.8078C4.60457 15.2417 5.4072 14.8074 6.66669 14.8074C7.21897 14.8074 7.66669 14.3769 7.66669 13.8458C7.66669 13.3148 7.21897 12.8843 6.66669 12.8843C4.84602 12.8843 3.51722 13.5446 2.59339 14.4935C1.6983 15.413 1.23124 16.5514 0.98183 17.4748C0.49863 19.2638 2.08118 20.5766 3.66666 20.5766H4.43588C4.98816 20.5766 5.43588 20.1461 5.43588 19.615C5.43588 19.084 4.98816 18.6535 4.43588 18.6535H3.66666C3.38413 18.6535 3.15914 18.5418 3.03122 18.406C2.91537 18.2829 2.86929 18.1371 2.91761 17.9582Z" fill="#6C7278"/>
</svg>
