<svg width="24" height="25" viewBox="0 0 24 25" fill="none" xmlns="http://www.w3.org/2000/svg">
<g clip-path="url(#clip0_1164_540)">
<path fill-rule="evenodd" clip-rule="evenodd" d="M12 7.96143C9.23858 7.96143 7 10.2 7 12.9614C7 15.7228 9.23858 17.9614 12 17.9614C14.7614 17.9614 17 15.7228 17 12.9614C17 10.2 14.7614 7.96143 12 7.96143ZM9 12.9614C9 11.3046 10.3431 9.96143 12 9.96143C13.6569 9.96143 15 11.3046 15 12.9614C15 14.6183 13.6569 15.9614 12 15.9614C10.3431 15.9614 9 14.6183 9 12.9614Z" fill="#6C7278"/>
<path fill-rule="evenodd" clip-rule="evenodd" d="M11.9998 0.961426C10.343 0.961426 8.99982 2.30457 8.99982 3.96143V4.47383C7.94579 4.84638 6.98255 5.40929 6.15122 6.12063L5.70552 5.86331C4.27065 5.03488 2.43588 5.52651 1.60745 6.96138C0.779021 8.39626 1.27065 10.231 2.70552 11.0595L3.15005 11.3161C3.05133 11.8501 2.99982 12.4001 2.99982 12.9614C2.99982 13.5271 3.05213 14.0813 3.15235 14.6191L2.70171 14.8734C1.25595 15.6891 0.753514 17.5277 1.58351 18.9653C2.41087 20.3983 4.24613 20.8848 5.67467 20.0497L6.12968 19.7837C6.96478 20.5028 7.93406 21.0717 8.99553 21.4475L8.99126 21.9352C8.97666 23.6022 10.324 24.9614 11.9911 24.9614C13.6376 24.9614 14.9765 23.6342 14.9909 21.9877L14.9956 21.4505C16.0505 21.0783 17.0146 20.5153 17.8466 19.8037L18.2608 20.0453C19.6965 20.8826 21.5393 20.3932 22.3703 18.9539C23.1961 17.5235 22.7104 15.6946 21.2836 14.8624L20.8492 14.609C20.9482 14.0743 20.9998 13.5235 20.9998 12.9614C20.9998 12.3993 20.9482 11.8486 20.8492 11.3139L21.2837 11.0604C22.7104 10.2283 23.1961 8.39943 22.3703 6.96904C21.5393 5.52969 19.6964 5.04026 18.2608 5.87763L17.8467 6.11915C17.0157 5.4085 16.0531 4.84612 14.9998 4.47383V3.96143C14.9998 2.30457 13.6567 0.961426 11.9998 0.961426ZM10.9998 3.96143C10.9998 3.40914 11.4475 2.96143 11.9998 2.96143C12.5521 2.96143 12.9998 3.40914 12.9998 3.96143V5.21346C12.9998 5.66974 13.3087 6.06817 13.7506 6.1819C15.0006 6.50365 16.1171 7.16298 16.9962 8.05877C17.3184 8.38708 17.823 8.45324 18.219 8.21909L18.4319 8.09318L18.437 8.09012L19.2684 7.60524C19.747 7.32612 20.3612 7.48926 20.6382 7.96904C20.9135 8.44583 20.7516 9.05544 20.276 9.33282L19.439 9.82101L19.2339 9.93139C18.8224 10.1529 18.6191 10.6298 18.7444 11.0801C18.9106 11.6776 18.9998 12.3083 18.9998 12.9614C18.9998 13.6135 18.9109 14.2432 18.7452 14.8399C18.6215 15.2851 18.819 15.7571 19.2229 15.9816L19.4332 16.0985L20.276 16.5901C20.7516 16.8675 20.9135 17.4771 20.6382 17.9539C20.3612 18.4336 19.747 18.5968 19.2684 18.3177L18.4319 17.8298C18.4233 17.8248 18.4147 17.82 18.4061 17.8152L18.1813 17.6929C17.7893 17.4796 17.3034 17.5518 16.9904 17.87C16.1122 18.7628 14.9979 19.4199 13.7506 19.741C13.3087 19.8547 12.9998 20.2531 12.9998 20.7094V20.957L12.991 21.9702C12.9861 22.519 12.5399 22.9614 11.9911 22.9614C11.4354 22.9614 10.9863 22.5084 10.9912 21.9527L10.9998 20.9702V20.7094C10.9998 20.2531 10.691 19.8547 10.2491 19.741C8.99055 19.417 7.86744 18.7509 6.98564 17.8459C6.66501 17.5168 6.16138 17.4486 5.76473 17.6804L4.66534 18.3231C4.19403 18.5986 3.58853 18.4381 3.31556 17.9653C3.04173 17.491 3.20749 16.8844 3.68448 16.6153L4.78653 15.9935C5.18755 15.7672 5.38224 15.2964 5.25813 14.853C5.09003 14.2525 4.99982 13.6183 4.99982 12.9614C4.99982 12.3112 5.0882 11.6833 5.25301 11.0882C5.3739 10.6517 5.1863 10.1885 4.79575 9.95907L4.57803 9.83115L3.70552 9.32741C3.22723 9.05127 3.06336 8.43968 3.3395 7.96139C3.61564 7.48309 4.22723 7.31922 4.70552 7.59536L5.55515 8.08589L5.75229 8.20989C6.15062 8.46045 6.66975 8.39937 6.99906 8.06322C7.87883 7.16516 8.99693 6.50418 10.2491 6.1819C10.691 6.06817 10.9998 5.66974 10.9998 5.21346V3.96143Z" fill="#6C7278"/>
</g>
<defs>
<clipPath id="clip0_1164_540">
<rect width="24" height="24" fill="white" transform="translate(0 0.961426)"/>
</clipPath>
</defs>
</svg>
